<svg id="visual" viewBox="0 0 900 600" width="900" height="600" xmlns="http://www.w3.org/2000/svg" xmlns:xlink="http://www.w3.org/1999/xlink" version="1.1"><rect x="0" y="0" width="900" height="600" fill="#fff"></rect><path d="M0 355L21.5 357C43 359 86 363 128.8 374.7C171.7 386.3 214.3 405.7 257.2 404.5C300 403.3 343 381.7 385.8 369.5C428.7 357.3 471.3 354.7 514.2 361C557 367.3 600 382.7 642.8 390C685.7 397.3 728.3 396.7 771.2 390C814 383.3 857 370.7 878.5 364.3L900 358L900 601L878.5 601C857 601 814 601 771.2 601C728.3 601 685.7 601 642.8 601C600 601 557 601 514.2 601C471.3 601 428.7 601 385.8 601C343 601 300 601 257.2 601C214.3 601 171.7 601 128.8 601C86 601 43 601 21.5 601L0 601Z" fill="#00b6e8"></path><path d="M0 402L21.5 405.2C43 408.3 86 414.7 128.8 421.8C171.7 429 214.3 437 257.2 436.7C300 436.3 343 427.7 385.8 431.5C428.7 435.3 471.3 451.7 514.2 453.7C557 455.7 600 443.3 642.8 434.2C685.7 425 728.3 419 771.2 421.7C814 424.3 857 435.7 878.5 441.3L900 447L900 601L878.5 601C857 601 814 601 771.2 601C728.3 601 685.7 601 642.8 601C600 601 557 601 514.2 601C471.3 601 428.7 601 385.8 601C343 601 300 601 257.2 601C214.3 601 171.7 601 128.8 601C86 601 43 601 21.5 601L0 601Z" fill="#00b0ef"></path><path d="M0 502L21.5 491.7C43 481.3 86 460.7 128.8 460.8C171.7 461 214.3 482 257.2 491.7C300 501.3 343 499.7 385.8 498.2C428.7 496.7 471.3 495.3 514.2 489.7C557 484 600 474 642.8 469.2C685.7 464.3 728.3 464.7 771.2 465.2C814 465.7 857 466.3 878.5 466.7L900 467L900 601L878.5 601C857 601 814 601 771.2 601C728.3 601 685.7 601 642.8 601C600 601 557 601 514.2 601C471.3 601 428.7 601 385.8 601C343 601 300 601 257.2 601C214.3 601 171.7 601 128.8 601C86 601 43 601 21.5 601L0 601Z" fill="#00aaf4"></path><path d="M0 535L21.5 527.2C43 519.3 86 503.7 128.8 498.7C171.7 493.7 214.3 499.3 257.2 500.2C300 501 343 497 385.8 493.5C428.7 490 471.3 487 514.2 488.8C557 490.7 600 497.3 642.8 498.2C685.7 499 728.3 494 771.2 491.3C814 488.7 857 488.3 878.5 488.2L900 488L900 601L878.5 601C857 601 814 601 771.2 601C728.3 601 685.7 601 642.8 601C600 601 557 601 514.2 601C471.3 601 428.7 601 385.8 601C343 601 300 601 257.2 601C214.3 601 171.7 601 128.8 601C86 601 43 601 21.5 601L0 601Z" fill="#00a3f8"></path><path d="M0 531L21.5 530.3C43 529.7 86 528.3 128.8 532.5C171.7 536.7 214.3 546.3 257.2 553.8C300 561.3 343 566.7 385.8 569.5C428.7 572.3 471.3 572.7 514.2 566.2C557 559.7 600 546.3 642.8 538.7C685.7 531 728.3 529 771.2 530.2C814 531.3 857 535.7 878.5 537.8L900 540L900 601L878.5 601C857 601 814 601 771.2 601C728.3 601 685.7 601 642.8 601C600 601 557 601 514.2 601C471.3 601 428.7 601 385.8 601C343 601 300 601 257.2 601C214.3 601 171.7 601 128.8 601C86 601 43 601 21.5 601L0 601Z" fill="#009bfb"></path></svg>