<svg id="visual" viewBox="0 0 900 600" width="900" height="600" xmlns="http://www.w3.org/2000/svg" xmlns:xlink="http://www.w3.org/1999/xlink" version="1.1"><rect x="0" y="0" width="900" height="600" fill="#ffffff"></rect><path d="M0 415L129 439L257 449L386 396L514 400L643 381L771 443L900 384L900 601L771 601L643 601L514 601L386 601L257 601L129 601L0 601Z" fill="#6475e7"></path><path d="M0 477L129 464L257 411L386 440L514 465L643 458L771 396L900 474L900 601L771 601L643 601L514 601L386 601L257 601L129 601L0 601Z" fill="#3d89f0"></path><path d="M0 485L129 499L257 439L386 464L514 453L643 473L771 488L900 439L900 601L771 601L643 601L514 601L386 601L257 601L129 601L0 601Z" fill="#009af2"></path><path d="M0 496L129 538L257 492L386 498L514 542L643 520L771 521L900 500L900 601L771 601L643 601L514 601L386 601L257 601L129 601L0 601Z" fill="#00a9ef"></path><path d="M0 570L129 541L257 541L386 553L514 571L643 548L771 544L900 538L900 601L771 601L643 601L514 601L386 601L257 601L129 601L0 601Z" fill="#00b6e8"></path></svg>