<svg xmlns="http://www.w3.org/2000/svg" xmlns:xlink="http://www.w3.org/1999/xlink" width="500" zoomAndPan="magnify" viewBox="0 0 375 374.999991" height="500" preserveAspectRatio="xMidYMid meet" version="1.0"><defs><g/><clipPath id="173cac23ac"><path d="M 81.058594 81.058594 L 294.058594 81.058594 L 294.058594 294.058594 L 81.058594 294.058594 Z M 81.058594 81.058594 " clip-rule="nonzero"/></clipPath><clipPath id="caa91536ac"><path d="M 177.453125 144.707031 L 187 144.707031 L 187 154 L 177.453125 154 Z M 177.453125 144.707031 " clip-rule="nonzero"/></clipPath><clipPath id="e48a6c11a6"><path d="M 188 155 L 197.703125 155 L 197.703125 164.957031 L 188 164.957031 Z M 188 155 " clip-rule="nonzero"/></clipPath><clipPath id="919f853d1a"><path d="M 177.453125 144.707031 L 197.703125 144.707031 L 197.703125 164.957031 L 177.453125 164.957031 Z M 177.453125 144.707031 " clip-rule="nonzero"/></clipPath></defs><g clip-path="url(#173cac23ac)"><path fill="#ab2222" d="M 187.558594 294.058594 C 128.71875 294.058594 81.058594 246.066406 81.058594 187.558594 C 81.058594 129.046875 128.71875 81.058594 187.558594 81.058594 C 246.394531 81.058594 294.058594 128.71875 294.058594 187.558594 C 294.058594 246.394531 246.066406 294.058594 187.558594 294.058594 Z M 187.558594 87.632812 C 132.335938 87.632812 87.632812 132.335938 87.632812 187.558594 C 87.632812 242.78125 132.335938 287.484375 187.558594 287.484375 C 242.78125 287.484375 287.484375 242.78125 287.484375 187.558594 C 287.484375 132.335938 242.453125 87.632812 187.558594 87.632812 Z M 187.558594 87.632812 " fill-opacity="1" fill-rule="nonzero"/></g><path fill="#ab2222" d="M 227.507812 190.375 C 236.667969 179.460938 237.347656 166.457031 229.960938 160.261719 C 222.574219 154.066406 209.878906 156.992188 200.71875 167.90625 C 195.835938 173.722656 193.144531 180.390625 192.8125 186.292969 L 192.605469 186.265625 C 192.59375 186.363281 191.589844 196.050781 190.242188 200.148438 C 189.191406 203.347656 187.269531 206.839844 186.472656 208.230469 L 186 207.832031 L 169.417969 227.582031 L 167.816406 227.867188 L 166.402344 229.554688 L 172.863281 234.972656 L 174.386719 233.152344 L 174.226562 231.332031 L 190.664062 211.75 L 190.28125 211.425781 C 191.511719 210.398438 194.625 207.902344 197.589844 206.308594 C 201.390625 204.269531 210.761719 201.601562 210.855469 201.574219 L 210.789062 201.339844 C 216.539062 199.988281 222.632812 196.183594 227.507812 190.375 Z M 202.546875 169.4375 C 202.847656 169.078125 203.160156 168.75 203.46875 168.410156 L 204.699219 169.441406 L 202.058594 172.585938 L 200.878906 171.597656 C 201.402344 170.867188 201.953125 170.144531 202.546875 169.4375 Z M 202.804688 173.210938 L 205.445312 170.066406 L 208.589844 172.707031 L 205.949219 175.851562 Z M 205.324219 176.597656 L 202.679688 179.746094 L 199.535156 177.105469 L 202.175781 173.960938 Z M 206.074219 169.320312 L 208.710938 166.175781 L 211.859375 168.8125 L 209.21875 171.957031 Z M 209.339844 165.429688 L 211.980469 162.28125 L 215.125 164.921875 L 212.484375 168.066406 Z M 212.609375 161.535156 L 212.796875 161.3125 C 214.242188 160.640625 215.679688 160.160156 217.09375 159.847656 L 218.441406 160.972656 L 215.753906 164.171875 Z M 207.964844 165.550781 L 205.324219 168.695312 L 204.121094 167.683594 C 205.109375 166.652344 206.128906 165.726562 207.171875 164.882812 Z M 207.960938 164.269531 C 208.789062 163.640625 209.625 163.074219 210.46875 162.566406 L 208.59375 164.800781 Z M 201.429688 173.332031 L 198.789062 176.480469 L 198.199219 175.984375 C 198.816406 174.78125 199.527344 173.585938 200.324219 172.40625 Z M 198.160156 177.226562 L 196.992188 178.621094 C 197.222656 178.039062 197.472656 177.460938 197.746094 176.878906 Z M 198.910156 177.855469 L 202.054688 180.492188 L 199.414062 183.636719 L 196.265625 181 Z M 219.648438 175.347656 L 217.007812 178.492188 L 213.859375 175.851562 L 216.5 172.707031 Z M 217.128906 171.960938 L 219.769531 168.816406 L 222.917969 171.457031 L 220.277344 174.601562 Z M 216.382812 179.242188 L 213.742188 182.386719 L 210.59375 179.746094 L 213.234375 176.601562 Z M 213.113281 183.132812 L 210.472656 186.28125 L 207.324219 183.640625 L 209.964844 180.492188 Z M 209.84375 187.027344 L 207.203125 190.171875 L 204.054688 187.53125 L 206.695312 184.386719 Z M 206.578125 190.917969 L 203.976562 194.019531 L 200.828125 191.378906 L 203.429688 188.277344 Z M 223.546875 170.707031 L 220.398438 168.066406 L 223.082031 164.867188 L 226.230469 167.507812 Z M 219.019531 168.1875 L 216.378906 171.332031 L 213.234375 168.695312 L 215.875 165.550781 Z M 216.503906 164.800781 L 219.1875 161.601562 L 222.332031 164.238281 L 219.648438 167.4375 Z M 215.75 172.082031 L 213.113281 175.222656 L 209.96875 172.585938 L 212.605469 169.441406 Z M 212.484375 175.972656 L 209.84375 179.117188 L 206.699219 176.480469 L 209.339844 173.335938 Z M 209.214844 179.863281 L 206.574219 183.011719 L 203.429688 180.375 L 206.070312 177.226562 Z M 205.949219 183.757812 L 203.304688 186.90625 L 200.160156 184.265625 L 202.804688 181.121094 Z M 202.679688 187.648438 L 200.078125 190.75 L 196.933594 188.113281 L 199.535156 185.011719 Z M 219.816406 160.855469 L 221.011719 159.433594 C 222.632812 159.472656 224.171875 159.78125 225.578125 160.375 L 222.960938 163.492188 Z M 199.449219 191.5 L 196.886719 194.550781 C 196.09375 193.226562 195.570312 191.703125 195.316406 190.039062 L 196.304688 188.859375 Z M 200.199219 192.128906 L 203.347656 194.769531 L 200.53125 198.121094 C 200.007812 197.824219 199.5 197.496094 199.03125 197.105469 C 198.429688 196.597656 197.921875 196.011719 197.460938 195.390625 Z M 207.949219 190.800781 L 210.59375 187.652344 L 213.738281 190.292969 L 211.097656 193.441406 Z M 210.472656 194.183594 L 207.871094 197.285156 L 204.722656 194.644531 L 207.324219 191.546875 Z M 211.21875 186.90625 L 213.859375 183.761719 L 217.007812 186.398438 L 214.367188 189.546875 Z M 214.488281 183.011719 L 217.128906 179.867188 L 220.277344 182.507812 L 217.636719 185.652344 Z M 217.753906 179.121094 L 220.394531 175.976562 L 223.542969 178.617188 L 220.902344 181.761719 Z M 221.023438 175.226562 L 223.664062 172.082031 L 226.8125 174.722656 L 224.171875 177.867188 Z M 224.292969 171.335938 L 226.976562 168.136719 L 230.125 170.773438 L 227.441406 173.972656 Z M 207.242188 198.035156 L 205.984375 199.53125 C 204.351562 199.492188 202.8125 199.179688 201.425781 198.570312 L 204.09375 195.394531 Z M 227.605469 167.386719 L 230.316406 164.160156 C 231.1875 165.382812 231.808594 166.785156 232.191406 168.316406 L 230.753906 170.027344 Z M 232.152344 176.265625 L 231.335938 177.238281 L 228.1875 174.601562 L 230.875 171.402344 L 232.605469 172.851562 C 232.554688 173.960938 232.402344 175.101562 232.152344 176.265625 Z M 229.832031 182.613281 L 228.816406 181.761719 L 231.457031 178.617188 L 231.496094 178.652344 C 231.066406 179.960938 230.511719 181.285156 229.832031 182.613281 Z M 225.679688 188.839844 C 225.085938 189.546875 224.46875 190.210938 223.839844 190.855469 L 222.28125 189.546875 L 224.917969 186.402344 L 226.53125 187.753906 C 226.25 188.113281 225.980469 188.480469 225.679688 188.839844 Z M 227.4375 181.882812 L 224.796875 185.027344 L 221.652344 182.386719 L 224.292969 179.242188 Z M 224.921875 178.496094 L 227.5625 175.351562 L 230.707031 177.988281 L 228.066406 181.132812 Z M 224.171875 185.773438 L 221.53125 188.917969 L 218.386719 186.277344 L 221.023438 183.136719 Z M 220.902344 189.664062 L 218.261719 192.8125 L 215.117188 190.171875 L 217.757812 187.027344 Z M 217.632812 193.558594 L 214.992188 196.707031 L 211.847656 194.066406 L 214.488281 190.921875 Z M 219.011719 193.441406 L 221.652344 190.292969 L 223.140625 191.542969 C 222.117188 192.53125 221.0625 193.4375 219.984375 194.257812 Z M 219.179688 194.855469 C 218.234375 195.527344 217.28125 196.117188 216.316406 196.648438 L 218.382812 194.1875 Z M 225.546875 185.652344 L 228.1875 182.507812 L 229.363281 183.496094 C 228.714844 184.664062 227.980469 185.832031 227.132812 186.984375 Z M 211.222656 194.8125 L 214.367188 197.449219 L 214.128906 197.734375 C 212.753906 198.335938 211.382812 198.804688 210.042969 199.105469 L 208.617188 197.914062 Z M 232.621094 171.59375 L 231.503906 170.65625 L 232.433594 169.546875 C 232.535156 170.210938 232.601562 170.890625 232.621094 171.59375 Z M 229.703125 163.375 L 226.859375 166.761719 L 223.710938 164.121094 L 226.484375 160.816406 C 227.167969 161.175781 227.824219 161.585938 228.425781 162.089844 C 228.894531 162.484375 229.3125 162.917969 229.703125 163.375 Z M 219.71875 159.449219 L 219.066406 160.226562 L 218.332031 159.609375 C 218.796875 159.539062 219.261719 159.480469 219.71875 159.449219 Z M 195.890625 181.953125 L 198.785156 184.382812 L 196.183594 187.484375 L 195.144531 186.613281 C 195.214844 185.113281 195.472656 183.550781 195.890625 181.953125 Z M 195.140625 187.882812 L 195.554688 188.230469 L 195.160156 188.703125 C 195.140625 188.433594 195.148438 188.15625 195.140625 187.882812 Z M 196.460938 204.207031 C 192.960938 206.082031 189.414062 209.019531 188.421875 209.867188 L 188.332031 209.792969 C 188.992188 208.664062 191.273438 204.664062 192.511719 200.894531 C 193.085938 199.152344 193.585938 196.5625 193.988281 194.058594 C 194.765625 195.960938 195.933594 197.621094 197.496094 198.933594 C 199.078125 200.257812 200.9375 201.117188 202.972656 201.554688 C 200.5625 202.386719 198.085938 203.335938 196.460938 204.207031 Z M 207.289062 199.496094 L 207.992188 198.660156 L 208.792969 199.332031 C 208.285156 199.410156 207.785156 199.464844 207.289062 199.496094 Z M 207.289062 199.496094 " fill-opacity="1" fill-rule="nonzero"/><path fill="#ab2222" d="M 174.234375 168.667969 C 165.070312 157.757812 152.375 154.828125 144.988281 161.023438 C 137.601562 167.21875 138.28125 180.226562 147.441406 191.136719 C 152.324219 196.953125 158.429688 200.761719 164.1875 202.109375 L 164.125 202.3125 C 164.222656 202.339844 173.589844 205.011719 177.390625 207.046875 C 180.363281 208.636719 183.46875 211.136719 184.699219 212.164062 L 184.226562 212.558594 L 200.808594 232.308594 L 200.808594 233.933594 L 202.226562 235.621094 L 208.6875 230.203125 L 207.160156 228.386719 L 205.335938 228.226562 L 188.894531 208.644531 L 188.511719 208.96875 C 187.710938 207.578125 185.792969 204.082031 184.738281 200.886719 C 183.390625 196.789062 182.386719 187.105469 182.378906 187.003906 L 182.132812 187.03125 C 181.800781 181.136719 179.109375 174.476562 174.234375 168.667969 Z M 149.269531 189.605469 C 148.96875 189.246094 148.699219 188.878906 148.417969 188.519531 L 149.648438 187.488281 L 152.289062 190.632812 L 151.109375 191.621094 C 150.480469 190.976562 149.863281 190.3125 149.269531 189.605469 Z M 153.035156 190.003906 L 150.394531 186.859375 L 153.539062 184.222656 L 156.179688 187.367188 Z M 156.808594 188.113281 L 159.449219 191.261719 L 156.304688 193.898438 L 153.664062 190.753906 Z M 149.769531 186.113281 L 147.128906 182.96875 L 150.273438 180.332031 L 152.914062 183.476562 Z M 146.5 182.21875 L 143.859375 179.074219 L 147.003906 176.4375 L 149.644531 179.582031 Z M 143.230469 178.328125 L 143.046875 178.105469 C 142.632812 176.566406 142.410156 175.0625 142.347656 173.617188 L 143.691406 172.488281 L 146.375 175.6875 Z M 146.378906 183.59375 L 149.019531 186.738281 L 147.816406 187.75 C 146.972656 186.597656 146.234375 185.429688 145.585938 184.261719 Z M 145.117188 183.378906 C 144.644531 182.453125 144.230469 181.53125 143.878906 180.613281 L 145.753906 182.847656 Z M 152.914062 191.378906 L 155.558594 194.527344 L 154.964844 195.019531 C 153.886719 194.203125 152.832031 193.296875 151.808594 192.308594 Z M 156.183594 195.273438 L 157.355469 196.667969 C 156.824219 196.335938 156.296875 195.992188 155.769531 195.621094 Z M 156.933594 194.644531 L 160.078125 192.007812 L 162.71875 195.15625 L 159.574219 197.792969 Z M 158.066406 173.796875 L 160.703125 176.941406 L 157.554688 179.582031 L 154.917969 176.4375 Z M 154.289062 175.6875 L 151.648438 172.542969 L 154.796875 169.902344 L 157.4375 173.046875 Z M 161.332031 177.6875 L 163.972656 180.832031 L 160.824219 183.472656 L 158.183594 180.328125 Z M 164.601562 181.578125 L 167.242188 184.726562 L 164.09375 187.367188 L 161.453125 184.21875 Z M 167.867188 185.472656 L 170.511719 188.621094 L 167.363281 191.261719 L 164.71875 188.113281 Z M 171.136719 189.363281 L 173.738281 192.464844 L 170.589844 195.105469 L 167.988281 192.007812 Z M 154.167969 169.152344 L 151.019531 171.792969 L 148.335938 168.59375 L 151.484375 165.953125 Z M 150.898438 173.171875 L 153.539062 176.316406 L 150.394531 178.953125 L 147.753906 175.808594 Z M 147.125 175.058594 L 144.441406 171.859375 L 147.585938 169.222656 L 150.269531 172.421875 Z M 154.167969 177.066406 L 156.808594 180.207031 L 153.664062 182.847656 L 151.023438 179.703125 Z M 157.433594 180.957031 L 160.074219 184.101562 L 156.929688 186.738281 L 154.289062 183.59375 Z M 160.703125 184.847656 L 163.34375 187.996094 L 160.199219 190.632812 L 157.558594 187.488281 Z M 163.972656 188.742188 L 166.613281 191.890625 L 163.46875 194.527344 L 160.828125 191.378906 Z M 167.238281 192.632812 L 169.839844 195.734375 L 166.695312 198.371094 L 164.09375 195.273438 Z M 143.8125 171.113281 L 142.617188 169.691406 C 142.9375 168.101562 143.511719 166.640625 144.339844 165.355469 L 146.957031 168.476562 Z M 170.46875 196.484375 L 173.03125 199.535156 C 171.589844 200.085938 170 200.335938 168.3125 200.300781 L 167.324219 199.121094 Z M 171.21875 195.855469 L 174.367188 193.214844 L 177.183594 196.566406 C 176.800781 197.03125 176.386719 197.472656 175.917969 197.867188 C 175.316406 198.371094 174.652344 198.769531 173.957031 199.117188 Z M 171.257812 187.992188 L 168.617188 184.847656 L 171.765625 182.207031 L 174.40625 185.355469 Z M 175.03125 186.097656 L 177.632812 189.199219 L 174.484375 191.839844 L 171.882812 188.738281 Z M 167.988281 184.101562 L 165.347656 180.953125 L 168.496094 178.3125 L 171.136719 181.460938 Z M 164.71875 180.207031 L 162.078125 177.0625 L 165.226562 174.421875 L 167.867188 177.566406 Z M 161.453125 176.3125 L 158.8125 173.167969 L 161.960938 170.53125 L 164.601562 173.675781 Z M 158.183594 172.421875 L 155.542969 169.277344 L 158.691406 166.636719 L 161.332031 169.78125 Z M 154.914062 168.527344 L 152.230469 165.328125 L 155.378906 162.6875 L 158.0625 165.886719 Z M 178.261719 189.949219 L 179.519531 191.445312 C 179.195312 193.046875 178.621094 194.507812 177.78125 195.765625 L 175.113281 192.589844 Z M 151.601562 164.582031 L 148.890625 161.351562 C 150.25 160.707031 151.738281 160.335938 153.3125 160.230469 L 154.75 161.941406 Z M 161.140625 161.648438 L 161.957031 162.621094 L 158.8125 165.257812 L 156.125 162.0625 L 157.855469 160.609375 C 158.9375 160.851562 160.035156 161.195312 161.140625 161.648438 Z M 166.992188 165.035156 L 165.972656 165.886719 L 163.335938 162.742188 L 163.375 162.707031 C 164.59375 163.359375 165.800781 164.132812 166.992188 165.035156 Z M 172.402344 170.203125 C 172.996094 170.910156 173.546875 171.632812 174.070312 172.363281 L 172.507812 173.671875 L 169.871094 170.527344 L 171.480469 169.175781 C 171.789062 169.515625 172.101562 169.84375 172.402344 170.203125 Z M 165.851562 167.265625 L 168.492188 170.40625 L 165.347656 173.046875 L 162.707031 169.902344 Z M 162.078125 169.152344 L 159.441406 166.007812 L 162.585938 163.371094 L 165.226562 166.515625 Z M 169.121094 171.15625 L 171.761719 174.300781 L 168.613281 176.9375 L 165.976562 173.792969 Z M 172.386719 175.046875 L 175.03125 178.195312 L 171.882812 180.832031 L 169.242188 177.6875 Z M 175.65625 178.941406 L 178.296875 182.089844 L 175.152344 184.726562 L 172.511719 181.578125 Z M 175.777344 177.566406 L 173.136719 174.417969 L 174.625 173.171875 C 175.425781 174.351562 176.132812 175.542969 176.75 176.75 Z M 177.203125 177.644531 C 177.699219 178.691406 178.117188 179.734375 178.472656 180.773438 L 176.40625 178.3125 Z M 169.242188 169.78125 L 166.601562 166.636719 L 167.78125 165.648438 C 168.820312 166.492188 169.839844 167.417969 170.828125 168.449219 Z M 175.777344 185.472656 L 178.925781 182.832031 L 179.160156 183.117188 C 179.519531 184.574219 179.742188 186.003906 179.804688 187.378906 L 178.382812 188.570312 Z M 156.617188 160.375 L 155.5 161.3125 L 154.570312 160.207031 C 155.242188 160.21875 155.921875 160.269531 156.617188 160.375 Z M 148.011719 161.820312 L 150.855469 165.207031 L 147.707031 167.847656 L 144.933594 164.542969 C 145.40625 163.933594 145.921875 163.359375 146.527344 162.855469 C 146.992188 162.460938 147.496094 162.125 148.011719 161.820312 Z M 142.414062 170.96875 L 143.0625 171.742188 L 142.328125 172.359375 C 142.339844 171.886719 142.363281 171.421875 142.414062 170.96875 Z M 160.449219 198.328125 L 163.34375 195.898438 L 165.945312 199 L 164.910156 199.871094 C 163.445312 199.542969 161.949219 199.015625 160.449219 198.328125 Z M 166.160156 200.097656 L 166.574219 199.75 L 166.96875 200.21875 C 166.703125 200.191406 166.429688 200.136719 166.160156 200.097656 Z M 182.472656 201.628906 C 183.710938 205.402344 185.988281 209.40625 186.652344 210.527344 L 186.5625 210.601562 C 185.566406 209.757812 182.023438 206.820312 178.519531 204.945312 C 176.90625 204.078125 174.441406 203.136719 172.042969 202.300781 C 174.050781 201.867188 175.890625 201.007812 177.453125 199.695312 C 179.035156 198.371094 180.207031 196.691406 180.988281 194.761719 C 181.390625 197.277344 181.894531 199.882812 182.472656 201.628906 Z M 179.710938 190.15625 L 179.011719 189.320312 L 179.808594 188.648438 C 179.800781 189.160156 179.765625 189.664062 179.710938 190.15625 Z M 179.710938 190.15625 " fill-opacity="1" fill-rule="nonzero"/><g fill="#ab2222" fill-opacity="1"><g transform="translate(118.399371, 190.161261)"><g><path d="M -23.609375 -5.109375 L -21.90625 -23.203125 C -21.832031 -23.898438 -21.695312 -24.398438 -21.5 -24.703125 C -21.3125 -25.003906 -21.039062 -25.191406 -20.6875 -25.265625 C -20.34375 -25.347656 -19.882812 -25.363281 -19.3125 -25.3125 C -18.75 -25.257812 -18.300781 -25.160156 -17.96875 -25.015625 C -17.644531 -24.867188 -17.425781 -24.664062 -17.3125 -24.40625 C -17.164062 -24.007812 -17.128906 -23.453125 -17.203125 -22.734375 L -17.78125 -16.515625 L -1.40625 -14.96875 C -0.90625 -14.914062 -0.539062 -14.863281 -0.3125 -14.8125 C -0.0820312 -14.757812 0.179688 -14.632812 0.484375 -14.4375 C 0.785156 -14.238281 0.984375 -13.925781 1.078125 -13.5 C 1.171875 -13.082031 1.179688 -12.535156 1.109375 -11.859375 C 1.046875 -11.191406 0.929688 -10.660156 0.765625 -10.265625 C 0.597656 -9.878906 0.347656 -9.617188 0.015625 -9.484375 C -0.316406 -9.359375 -0.601562 -9.289062 -0.84375 -9.28125 C -1.09375 -9.269531 -1.46875 -9.285156 -1.96875 -9.328125 L -18.3125 -10.875 L -18.90625 -4.640625 C -18.96875 -3.941406 -19.09375 -3.4375 -19.28125 -3.125 C -19.46875 -2.8125 -19.738281 -2.617188 -20.09375 -2.546875 C -20.457031 -2.472656 -20.921875 -2.460938 -21.484375 -2.515625 C -22.054688 -2.566406 -22.5 -2.660156 -22.8125 -2.796875 C -23.132812 -2.941406 -23.351562 -3.148438 -23.46875 -3.421875 C -23.625 -3.828125 -23.671875 -4.390625 -23.609375 -5.109375 Z M -23.609375 -5.109375 "/></g></g></g><g fill="#ab2222" fill-opacity="1"><g transform="translate(120.154336, 169.337392)"><g><path d="M -16 -24.75 C -15.8125 -25.207031 -15.65625 -25.546875 -15.53125 -25.765625 C -15.414062 -25.984375 -15.21875 -26.207031 -14.9375 -26.4375 C -14.65625 -26.675781 -14.300781 -26.78125 -13.875 -26.75 C -13.445312 -26.71875 -12.90625 -26.570312 -12.25 -26.3125 C -11.601562 -26.0625 -11.109375 -25.800781 -10.765625 -25.53125 C -10.429688 -25.257812 -10.25 -24.9375 -10.21875 -24.5625 C -10.1875 -24.195312 -10.203125 -23.890625 -10.265625 -23.640625 C -10.328125 -23.398438 -10.453125 -23.039062 -10.640625 -22.5625 L -14.3125 -13.25 L -11.234375 -12.03125 L -8.875 -18.03125 C -8.675781 -18.507812 -8.515625 -18.859375 -8.390625 -19.078125 C -8.273438 -19.304688 -8.082031 -19.539062 -7.8125 -19.78125 C -7.289062 -20.195312 -6.378906 -20.144531 -5.078125 -19.625 C -3.660156 -19.070312 -2.976562 -18.359375 -3.03125 -17.484375 C -3.050781 -17.117188 -3.203125 -16.582031 -3.484375 -15.875 L -5.828125 -9.90625 L -0.078125 -7.640625 C 0.398438 -7.453125 0.742188 -7.296875 0.953125 -7.171875 C 1.171875 -7.054688 1.40625 -6.863281 1.65625 -6.59375 C 2.082031 -6.082031 2.039062 -5.179688 1.53125 -3.890625 C 0.96875 -2.472656 0.253906 -1.789062 -0.609375 -1.84375 C -0.972656 -1.851562 -1.507812 -2 -2.21875 -2.28125 L -19.125 -8.9375 C -20.15625 -9.34375 -20.78125 -9.8125 -21 -10.34375 C -21.226562 -10.882812 -21.132812 -11.691406 -20.71875 -12.765625 Z M -16 -24.75 "/></g></g></g><g fill="#ab2222" fill-opacity="1"><g transform="translate(126.208752, 152.454264)"><g><path d="M -16.515625 -17.890625 L -12.84375 -22.671875 C -10.9375 -25.179688 -8.347656 -26.703125 -5.078125 -27.234375 C -1.816406 -27.765625 1.132812 -27.019531 3.78125 -25 C 6.425781 -22.988281 7.976562 -20.332031 8.4375 -17.03125 C 8.90625 -13.726562 8.132812 -10.75 6.125 -8.09375 L 2.5 -3.34375 C 1.695312 -2.28125 0.984375 -1.789062 0.359375 -1.875 C -0.160156 -1.9375 -0.796875 -2.253906 -1.546875 -2.828125 L -16 -13.828125 C -16.414062 -14.148438 -16.707031 -14.394531 -16.875 -14.5625 C -17.039062 -14.726562 -17.203125 -14.976562 -17.359375 -15.3125 C -17.648438 -15.914062 -17.367188 -16.773438 -16.515625 -17.890625 Z M 1.59375 -11.6875 C 2.539062 -12.925781 2.929688 -14.40625 2.765625 -16.125 C 2.609375 -17.84375 1.828125 -19.234375 0.421875 -20.296875 C -0.984375 -21.367188 -2.53125 -21.769531 -4.21875 -21.5 C -5.914062 -21.238281 -7.265625 -20.445312 -8.265625 -19.125 L -10.15625 -16.640625 L -0.328125 -9.15625 Z M 1.59375 -11.6875 "/></g></g></g><g fill="#ab2222" fill-opacity="1"><g transform="translate(139.206859, 136.21623)"><g/></g></g><g fill="#ab2222" fill-opacity="1"><g transform="translate(143.155316, 131.384646)"><g><path d="M -9.4375 -22.234375 L 6.3125 -31.28125 C 6.914062 -31.625 7.394531 -31.800781 7.75 -31.8125 C 8.113281 -31.832031 8.425781 -31.722656 8.6875 -31.484375 C 8.957031 -31.242188 9.234375 -30.878906 9.515625 -30.390625 C 9.804688 -29.898438 9.988281 -29.476562 10.0625 -29.125 C 10.132812 -28.769531 10.085938 -28.472656 9.921875 -28.234375 C 9.679688 -27.867188 9.25 -27.507812 8.625 -27.15625 L 3.203125 -24.046875 L 11.390625 -9.796875 C 11.640625 -9.359375 11.8125 -9.03125 11.90625 -8.8125 C 12 -8.59375 12.050781 -8.300781 12.0625 -7.9375 C 12.082031 -7.582031 11.945312 -7.242188 11.65625 -6.921875 C 11.363281 -6.597656 10.921875 -6.269531 10.328125 -5.9375 C 9.742188 -5.601562 9.242188 -5.390625 8.828125 -5.296875 C 8.421875 -5.210938 8.066406 -5.269531 7.765625 -5.46875 C 7.472656 -5.664062 7.25 -5.859375 7.09375 -6.046875 C 6.9375 -6.242188 6.734375 -6.5625 6.484375 -7 L -1.6875 -21.21875 L -7.125 -18.109375 C -7.726562 -17.753906 -8.210938 -17.566406 -8.578125 -17.546875 C -8.941406 -17.523438 -9.253906 -17.632812 -9.515625 -17.875 C -9.785156 -18.125 -10.0625 -18.492188 -10.34375 -18.984375 C -10.632812 -19.484375 -10.816406 -19.90625 -10.890625 -20.25 C -10.960938 -20.59375 -10.914062 -20.890625 -10.75 -21.140625 C -10.5 -21.503906 -10.0625 -21.867188 -9.4375 -22.234375 Z M -9.4375 -22.234375 "/></g></g></g><g fill="#ab2222" fill-opacity="1"><g transform="translate(161.170876, 120.797948)"><g><path d="M 5.515625 -7.296875 L 15.296875 -9.6875 C 15.773438 -9.800781 16.140625 -9.875 16.390625 -9.90625 C 16.640625 -9.945312 16.945312 -9.914062 17.3125 -9.8125 C 17.945312 -9.664062 18.429688 -8.914062 18.765625 -7.5625 C 19.128906 -6.082031 18.945312 -5.117188 18.21875 -4.671875 C 17.894531 -4.453125 17.367188 -4.253906 16.640625 -4.078125 L 4.0625 -1 C 2.582031 -0.632812 1.613281 -0.820312 1.15625 -1.5625 C 0.957031 -1.875 0.769531 -2.398438 0.59375 -3.140625 L -3.734375 -20.78125 C -3.992188 -21.851562 -3.972656 -22.632812 -3.671875 -23.125 C -3.367188 -23.625 -2.65625 -24.007812 -1.53125 -24.28125 L 10.984375 -27.34375 C 11.460938 -27.457031 11.828125 -27.523438 12.078125 -27.546875 C 12.328125 -27.578125 12.628906 -27.550781 12.984375 -27.46875 C 13.628906 -27.3125 14.117188 -26.554688 14.453125 -25.203125 C 14.816406 -23.722656 14.632812 -22.753906 13.90625 -22.296875 C 13.582031 -22.097656 13.054688 -21.910156 12.328125 -21.734375 L 2.578125 -19.34375 L 3.359375 -16.125 L 9.640625 -17.65625 C 10.128906 -17.78125 10.492188 -17.851562 10.734375 -17.875 C 10.984375 -17.90625 11.285156 -17.875 11.640625 -17.78125 C 12.296875 -17.625 12.789062 -16.867188 13.125 -15.515625 C 13.488281 -14.035156 13.296875 -13.070312 12.546875 -12.625 C 12.222656 -12.40625 11.691406 -12.203125 10.953125 -12.015625 L 4.734375 -10.5 Z M 5.515625 -7.296875 "/></g></g></g><g fill="#ab2222" fill-opacity="1"><g transform="translate(178.448911, 115.954654)"><g><path d="M 17.65625 -22.28125 C 17.882812 -22.65625 18.207031 -22.898438 18.625 -23.015625 C 19.039062 -23.128906 19.554688 -23.175781 20.171875 -23.15625 C 20.796875 -23.132812 21.296875 -23.0625 21.671875 -22.9375 C 22.046875 -22.8125 22.320312 -22.664062 22.5 -22.5 C 22.6875 -22.332031 22.816406 -22.097656 22.890625 -21.796875 C 23.003906 -21.441406 23.046875 -20.882812 23.015625 -20.125 L 22.3125 -2 C 22.289062 -1.476562 22.257812 -1.097656 22.21875 -0.859375 C 22.175781 -0.628906 22.0625 -0.347656 21.875 -0.015625 C 21.550781 0.546875 20.691406 0.800781 19.296875 0.75 C 18.441406 0.71875 17.851562 0.628906 17.53125 0.484375 C 17.21875 0.347656 16.957031 0.132812 16.75 -0.15625 C 12.113281 -6.882812 9.0625 -11.273438 7.59375 -13.328125 L 7.171875 -2.59375 C 7.148438 -2.070312 7.113281 -1.691406 7.0625 -1.453125 C 7.019531 -1.222656 6.910156 -0.941406 6.734375 -0.609375 C 6.398438 -0.0351562 5.539062 0.21875 4.15625 0.15625 C 2.800781 0.101562 1.984375 -0.21875 1.703125 -0.8125 C 1.535156 -1.144531 1.441406 -1.441406 1.421875 -1.703125 C 1.398438 -1.972656 1.398438 -2.359375 1.421875 -2.859375 L 2.140625 -21.078125 C 2.171875 -21.898438 2.296875 -22.5 2.515625 -22.875 C 2.734375 -23.25 3.050781 -23.492188 3.46875 -23.609375 C 3.894531 -23.722656 4.429688 -23.765625 5.078125 -23.734375 C 5.734375 -23.710938 6.25 -23.632812 6.625 -23.5 C 7 -23.363281 7.257812 -23.21875 7.40625 -23.0625 C 7.488281 -22.988281 7.726562 -22.695312 8.125 -22.1875 C 12.46875 -15.75 15.375 -11.503906 16.84375 -9.453125 L 17.28125 -20.484375 C 17.3125 -21.304688 17.4375 -21.90625 17.65625 -22.28125 Z M 17.65625 -22.28125 "/></g></g></g><g fill="#ab2222" fill-opacity="1"><g transform="translate(198.884469, 116.292583)"><g><path d="M 23.390625 -16.15625 C 23.710938 -16.445312 24.085938 -16.585938 24.515625 -16.578125 C 24.953125 -16.566406 25.460938 -16.457031 26.046875 -16.25 C 26.628906 -16.050781 27.082031 -15.835938 27.40625 -15.609375 C 27.726562 -15.378906 27.953125 -15.160156 28.078125 -14.953125 C 28.210938 -14.742188 28.269531 -14.484375 28.25 -14.171875 C 28.257812 -13.804688 28.140625 -13.265625 27.890625 -12.546875 L 21.921875 4.578125 C 21.753906 5.066406 21.613281 5.421875 21.5 5.640625 C 21.394531 5.859375 21.203125 6.097656 20.921875 6.359375 C 20.453125 6.804688 19.554688 6.800781 18.234375 6.34375 C 17.429688 6.0625 16.894531 5.804688 16.625 5.578125 C 16.363281 5.347656 16.175781 5.066406 16.0625 4.734375 C 13.59375 -3.054688 11.957031 -8.148438 11.15625 -10.546875 L 7.609375 -0.390625 C 7.441406 0.0976562 7.300781 0.445312 7.1875 0.65625 C 7.070312 0.875 6.878906 1.113281 6.609375 1.375 C 6.128906 1.820312 5.234375 1.816406 3.921875 1.359375 C 2.640625 0.921875 1.953125 0.375 1.859375 -0.28125 C 1.804688 -0.644531 1.804688 -0.953125 1.859375 -1.203125 C 1.910156 -1.460938 2.019531 -1.832031 2.1875 -2.3125 L 8.1875 -19.53125 C 8.457031 -20.300781 8.75 -20.835938 9.0625 -21.140625 C 9.382812 -21.441406 9.765625 -21.582031 10.203125 -21.5625 C 10.640625 -21.550781 11.164062 -21.4375 11.78125 -21.21875 C 12.394531 -21.007812 12.863281 -20.785156 13.1875 -20.546875 C 13.507812 -20.304688 13.71875 -20.085938 13.8125 -19.890625 C 13.863281 -19.804688 14.003906 -19.457031 14.234375 -18.84375 C 16.515625 -11.425781 18.054688 -6.519531 18.859375 -4.125 L 22.5 -14.5625 C 22.769531 -15.332031 23.066406 -15.863281 23.390625 -16.15625 Z M 23.390625 -16.15625 "/></g></g></g><g fill="#ab2222" fill-opacity="1"><g transform="translate(218.795992, 123.788316)"><g><path d="M 11.890625 -17.453125 C 12.140625 -17.878906 12.34375 -18.191406 12.5 -18.390625 C 12.65625 -18.597656 12.890625 -18.789062 13.203125 -18.96875 C 13.773438 -19.332031 14.660156 -19.15625 15.859375 -18.4375 C 17.171875 -17.664062 17.738281 -16.859375 17.5625 -16.015625 C 17.46875 -15.640625 17.226562 -15.125 16.84375 -14.46875 L 7.5625 1.15625 C 7.289062 1.601562 7.078125 1.914062 6.921875 2.09375 C 6.773438 2.28125 6.550781 2.476562 6.25 2.6875 C 5.675781 3.03125 4.789062 2.847656 3.59375 2.140625 C 2.28125 1.359375 1.722656 0.546875 1.921875 -0.296875 C 1.992188 -0.660156 2.222656 -1.171875 2.609375 -1.828125 Z M 11.890625 -17.453125 "/></g></g></g><g fill="#ab2222" fill-opacity="1"><g transform="translate(224.746125, 126.60129)"><g><path d="M 3.453125 -1.453125 C 3.460938 -2.359375 3.648438 -3.019531 4.015625 -3.4375 C 4.378906 -3.863281 5.21875 -4.125 6.53125 -4.21875 C 7.28125 -4.257812 7.890625 -4.078125 8.359375 -3.671875 C 8.828125 -3.273438 9.117188 -2.304688 9.234375 -0.765625 C 9.222656 -0.304688 9.320312 0.234375 9.53125 0.859375 C 9.738281 1.484375 10.023438 1.953125 10.390625 2.265625 C 11.929688 3.585938 13.242188 3.625 14.328125 2.375 C 14.648438 1.988281 14.707031 1.488281 14.5 0.875 C 14.289062 0.257812 13.921875 -0.375 13.390625 -1.03125 C 12.867188 -1.6875 12.351562 -2.453125 11.84375 -3.328125 C 11.34375 -4.210938 10.925781 -5.097656 10.59375 -5.984375 C 10.257812 -6.867188 10.203125 -7.867188 10.421875 -8.984375 C 10.640625 -10.109375 11.207031 -11.195312 12.125 -12.25 C 13.363281 -13.707031 14.988281 -14.507812 17 -14.65625 C 19.019531 -14.8125 20.96875 -14.085938 22.84375 -12.484375 C 23.832031 -11.640625 24.625 -10.738281 25.21875 -9.78125 C 25.8125 -8.820312 26.160156 -8.078125 26.265625 -7.546875 L 26.46875 -6.53125 C 26.5625 -5.613281 26.46875 -4.988281 26.1875 -4.65625 C 25.90625 -4.332031 25.316406 -4.050781 24.421875 -3.8125 C 23.160156 -3.46875 22.226562 -3.550781 21.625 -4.0625 C 21.269531 -4.363281 20.988281 -4.894531 20.78125 -5.65625 C 20.738281 -5.738281 20.707031 -5.90625 20.6875 -6.15625 C 20.664062 -6.40625 20.632812 -6.625 20.59375 -6.8125 C 20.414062 -7.320312 20.054688 -7.804688 19.515625 -8.265625 C 18.984375 -8.734375 18.425781 -8.988281 17.84375 -9.03125 C 17.269531 -9.070312 16.785156 -8.863281 16.390625 -8.40625 C 16.003906 -7.957031 15.90625 -7.410156 16.09375 -6.765625 C 16.28125 -6.128906 16.644531 -5.488281 17.1875 -4.84375 C 17.726562 -4.207031 18.28125 -3.46875 18.84375 -2.625 C 19.414062 -1.789062 19.890625 -0.953125 20.265625 -0.109375 C 20.640625 0.734375 20.722656 1.703125 20.515625 2.796875 C 20.304688 3.890625 19.738281 4.972656 18.8125 6.046875 C 17.894531 7.128906 16.867188 7.894531 15.734375 8.34375 C 14.597656 8.789062 13.5 8.941406 12.4375 8.796875 C 10.332031 8.523438 8.519531 7.738281 7 6.4375 C 6.21875 5.769531 5.5625 5.039062 5.03125 4.25 C 4.507812 3.46875 4.15625 2.75 3.96875 2.09375 C 3.539062 0.8125 3.363281 -0.222656 3.4375 -1.015625 Z M 3.453125 -1.453125 "/></g></g></g><g fill="#ab2222" fill-opacity="1"><g transform="translate(237.561137, 137.968641)"><g/></g></g><g fill="#ab2222" fill-opacity="1"><g transform="translate(242.207054, 142.238532)"><g><path d="M 13.28125 11.28125 L 13.953125 11.59375 C 14.679688 12.039062 15.117188 12.394531 15.265625 12.65625 C 15.585938 13.25 15.398438 14.179688 14.703125 15.453125 C 14.265625 16.234375 13.84375 16.734375 13.4375 16.953125 C 13.039062 17.171875 12.640625 17.222656 12.234375 17.109375 C 11.835938 17.003906 11.4375 16.835938 11.03125 16.609375 C 10.632812 16.378906 10.253906 16.160156 9.890625 15.953125 C 9.523438 15.742188 8.921875 15.234375 8.078125 14.421875 C 7.242188 13.609375 6.578125 12.75 6.078125 11.84375 C 5.585938 10.9375 5.207031 9.953125 4.9375 8.890625 C 4.664062 7.835938 4.546875 6.664062 4.578125 5.375 C 4.609375 4.082031 4.8125 2.820312 5.1875 1.59375 C 5.570312 0.363281 6.265625 -0.847656 7.265625 -2.046875 C 8.265625 -3.242188 9.507812 -4.25 11 -5.0625 C 12.5 -5.882812 13.988281 -6.375 15.46875 -6.53125 C 16.945312 -6.695312 18.296875 -6.609375 19.515625 -6.265625 C 20.734375 -5.929688 21.878906 -5.410156 22.953125 -4.703125 C 25.003906 -3.390625 26.546875 -1.785156 27.578125 0.109375 C 28.066406 1.003906 28.425781 1.988281 28.65625 3.0625 C 28.894531 4.132812 28.992188 4.992188 28.953125 5.640625 L 28.953125 6.546875 C 28.921875 6.992188 28.890625 7.359375 28.859375 7.640625 C 28.742188 8.347656 28.429688 8.835938 27.921875 9.109375 C 27.410156 9.390625 26.769531 9.484375 26 9.390625 C 24.5625 9.203125 23.675781 8.8125 23.34375 8.21875 C 23.164062 7.882812 23.113281 7.285156 23.1875 6.421875 C 23.394531 5.265625 23.128906 4.015625 22.390625 2.671875 C 21.710938 1.429688 20.617188 0.445312 19.109375 -0.28125 C 18.367188 -0.632812 17.515625 -0.789062 16.546875 -0.75 C 15.578125 -0.71875 14.609375 -0.441406 13.640625 0.078125 C 12.679688 0.609375 11.921875 1.269531 11.359375 2.0625 C 10.796875 2.863281 10.457031 3.679688 10.34375 4.515625 C 10.132812 6.140625 10.375 7.582031 11.0625 8.84375 C 11.382812 9.4375 11.765625 9.953125 12.203125 10.390625 C 12.648438 10.835938 13.007812 11.132812 13.28125 11.28125 Z M 13.28125 11.28125 "/></g></g></g><g fill="#ab2222" fill-opacity="1"><g transform="translate(251.962901, 158.679281)"><g><path d="M 26.265625 7.46875 C 26.898438 10.625 26.3125 13.597656 24.5 16.390625 C 22.6875 19.179688 20.085938 20.921875 16.703125 21.609375 C 13.316406 22.296875 10.207031 21.769531 7.375 20.03125 C 4.550781 18.289062 2.8125 15.800781 2.15625 12.5625 C 1.5 9.320312 2.109375 6.320312 3.984375 3.5625 C 5.867188 0.8125 8.4375 -0.890625 11.6875 -1.546875 C 13.445312 -1.898438 15.164062 -1.914062 16.84375 -1.59375 C 18.53125 -1.269531 20.003906 -0.679688 21.265625 0.171875 C 22.523438 1.035156 23.597656 2.097656 24.484375 3.359375 C 25.367188 4.628906 25.960938 6 26.265625 7.46875 Z M 12.984375 4.09375 C 11.085938 4.476562 9.671875 5.40625 8.734375 6.875 C 7.804688 8.34375 7.492188 9.832031 7.796875 11.34375 C 8.109375 12.863281 8.960938 14.113281 10.359375 15.09375 C 11.765625 16.070312 13.4375 16.363281 15.375 15.96875 C 17.3125 15.582031 18.742188 14.65625 19.671875 13.1875 C 20.597656 11.726562 20.90625 10.238281 20.59375 8.71875 C 20.289062 7.207031 19.421875 5.960938 17.984375 4.984375 C 16.554688 4.003906 14.890625 3.707031 12.984375 4.09375 Z M 12.984375 4.09375 "/></g></g></g><g fill="#ab2222" fill-opacity="1"><g transform="translate(255.878173, 181.325252)"><g><path d="M 5.34375 6.421875 C 4.96875 6.773438 4.207031 6.953125 3.0625 6.953125 L 2.921875 6.9375 C 2.398438 6.9375 2.015625 6.921875 1.765625 6.890625 C 1.515625 6.859375 1.21875 6.738281 0.875 6.53125 C 0.238281 6.207031 -0.0703125 5.382812 -0.0625 4.0625 C -0.0507812 2.75 0.160156 1.878906 0.578125 1.453125 C 0.992188 1.035156 1.78125 0.828125 2.9375 0.828125 L 3.078125 0.828125 C 3.578125 0.835938 3.957031 0.859375 4.21875 0.890625 C 4.476562 0.929688 4.765625 1.035156 5.078125 1.203125 C 5.734375 1.546875 6.054688 2.375 6.046875 3.6875 C 6.035156 5.007812 5.800781 5.921875 5.34375 6.421875 Z M 5.34375 6.421875 "/></g></g></g><g clip-path="url(#caa91536ac)"><path fill="#ab2222" d="M 186.613281 145.722656 C 186.613281 145.402344 186.59375 145.085938 186.550781 144.765625 C 185.976562 144.828125 185.414062 144.9375 184.859375 145.09375 C 184.304688 145.253906 183.765625 145.457031 183.246094 145.703125 C 182.722656 145.953125 182.226562 146.246094 181.757812 146.578125 C 181.285156 146.910156 180.847656 147.28125 180.4375 147.691406 C 180.03125 148.097656 179.660156 148.539062 179.328125 149.007812 C 178.992188 149.480469 178.703125 149.976562 178.453125 150.496094 C 178.203125 151.015625 178 151.554688 177.84375 152.109375 C 177.6875 152.664062 177.578125 153.230469 177.515625 153.804688 C 177.832031 153.84375 178.152344 153.863281 178.472656 153.863281 C 179.007812 153.863281 179.535156 153.808594 180.058594 153.707031 C 180.582031 153.601562 181.09375 153.445312 181.585938 153.242188 C 182.078125 153.035156 182.546875 152.785156 182.992188 152.488281 C 183.4375 152.191406 183.847656 151.855469 184.226562 151.476562 C 184.601562 151.097656 184.941406 150.6875 185.238281 150.242188 C 185.535156 149.800781 185.785156 149.332031 185.992188 148.835938 C 186.195312 148.34375 186.351562 147.835938 186.453125 147.3125 C 186.558594 146.785156 186.613281 146.257812 186.613281 145.722656 Z M 186.613281 145.722656 " fill-opacity="1" fill-rule="nonzero"/></g><g clip-path="url(#e48a6c11a6)"><path fill="#ab2222" d="M 188.648438 164.039062 C 188.648438 164.359375 188.667969 164.679688 188.710938 164.996094 C 189.28125 164.933594 189.847656 164.824219 190.402344 164.667969 C 190.957031 164.511719 191.496094 164.308594 192.015625 164.058594 C 192.535156 163.808594 193.03125 163.519531 193.503906 163.1875 C 193.976562 162.851562 194.414062 162.480469 194.824219 162.074219 C 195.230469 161.664062 195.601562 161.226562 195.933594 160.753906 C 196.269531 160.285156 196.558594 159.789062 196.808594 159.265625 C 197.058594 158.746094 197.261719 158.207031 197.417969 157.652344 C 197.574219 157.097656 197.683594 156.535156 197.746094 155.960938 C 197.429688 155.917969 197.109375 155.898438 196.789062 155.898438 C 196.253906 155.898438 195.726562 155.953125 195.203125 156.058594 C 194.675781 156.164062 194.167969 156.316406 193.675781 156.523438 C 193.183594 156.726562 192.714844 156.976562 192.269531 157.273438 C 191.824219 157.570312 191.414062 157.910156 191.035156 158.285156 C 190.65625 158.664062 190.320312 159.074219 190.023438 159.519531 C 189.726562 159.964844 189.476562 160.433594 189.269531 160.925781 C 189.066406 161.417969 188.910156 161.929688 188.804688 162.453125 C 188.703125 162.976562 188.648438 163.503906 188.648438 164.039062 Z M 188.648438 164.039062 " fill-opacity="1" fill-rule="nonzero"/></g><g clip-path="url(#919f853d1a)"><path fill="#ab2222" d="M 196.789062 153.863281 C 197.113281 153.863281 197.449219 153.882812 197.765625 153.90625 C 197.707031 153.320312 197.601562 152.746094 197.445312 152.183594 C 197.289062 151.617188 197.085938 151.070312 196.832031 150.542969 C 196.582031 150.011719 196.289062 149.507812 195.953125 149.027344 C 195.613281 148.550781 195.238281 148.101562 194.824219 147.6875 C 194.410156 147.273438 193.960938 146.898438 193.484375 146.5625 C 193.003906 146.222656 192.5 145.929688 191.972656 145.679688 C 191.441406 145.429688 190.894531 145.222656 190.328125 145.066406 C 189.765625 144.910156 189.191406 144.804688 188.609375 144.746094 C 188.628906 145.0625 188.648438 145.398438 188.648438 145.722656 C 188.648438 146.390625 188.582031 147.050781 188.449219 147.707031 C 188.320312 148.363281 188.125 149 187.871094 149.613281 C 187.613281 150.230469 187.300781 150.816406 186.929688 151.371094 C 186.558594 151.929688 186.136719 152.441406 185.664062 152.914062 C 185.191406 153.386719 184.675781 153.808594 184.121094 154.179688 C 183.566406 154.550781 182.980469 154.863281 182.363281 155.121094 C 181.746094 155.375 181.113281 155.570312 180.457031 155.699219 C 179.800781 155.832031 179.140625 155.898438 178.472656 155.898438 C 178.148438 155.898438 177.8125 155.878906 177.496094 155.859375 C 177.554688 156.441406 177.660156 157.015625 177.816406 157.582031 C 177.972656 158.144531 178.175781 158.691406 178.425781 159.222656 C 178.679688 159.75 178.972656 160.253906 179.308594 160.734375 C 179.648438 161.214844 180.023438 161.660156 180.4375 162.074219 C 180.851562 162.488281 181.296875 162.863281 181.777344 163.203125 C 182.257812 163.539062 182.761719 163.832031 183.289062 164.085938 C 183.820312 164.335938 184.367188 164.539062 184.933594 164.695312 C 185.496094 164.851562 186.070312 164.960938 186.652344 165.015625 C 186.632812 164.703125 186.613281 164.367188 186.613281 164.039062 C 186.613281 163.371094 186.679688 162.710938 186.8125 162.054688 C 186.941406 161.402344 187.136719 160.765625 187.390625 160.148438 C 187.648438 159.53125 187.960938 158.945312 188.332031 158.390625 C 188.703125 157.835938 189.125 157.320312 189.597656 156.847656 C 190.070312 156.378906 190.585938 155.957031 191.140625 155.582031 C 191.695312 155.210938 192.28125 154.898438 192.898438 154.644531 C 193.515625 154.386719 194.148438 154.191406 194.804688 154.0625 C 195.460938 153.929688 196.121094 153.863281 196.789062 153.863281 Z M 196.789062 153.863281 " fill-opacity="1" fill-rule="nonzero"/></g><g fill="#ab2222" fill-opacity="1"><g transform="translate(176.275134, 253.842863)"><g><path d="M 2.6875 -2.1875 L 6.5 -2.1875 C 6.695312 -2.1875 6.84375 -2.179688 6.9375 -2.171875 C 7.03125 -2.160156 7.140625 -2.125 7.265625 -2.0625 C 7.484375 -1.945312 7.59375 -1.625 7.59375 -1.09375 C 7.59375 -0.507812 7.441406 -0.171875 7.140625 -0.078125 C 6.992188 -0.0234375 6.78125 0 6.5 0 L 1.59375 0 C 1.007812 0 0.664062 -0.15625 0.5625 -0.46875 C 0.519531 -0.601562 0.5 -0.816406 0.5 -1.109375 L 0.5 -7.984375 C 0.5 -8.410156 0.578125 -8.695312 0.734375 -8.84375 C 0.890625 -9 1.1875 -9.078125 1.625 -9.078125 L 6.5 -9.078125 C 6.695312 -9.078125 6.84375 -9.070312 6.9375 -9.0625 C 7.03125 -9.050781 7.140625 -9.015625 7.265625 -8.953125 C 7.484375 -8.828125 7.59375 -8.503906 7.59375 -7.984375 C 7.59375 -7.398438 7.441406 -7.0625 7.140625 -6.96875 C 6.992188 -6.914062 6.78125 -6.890625 6.5 -6.890625 L 2.6875 -6.890625 L 2.6875 -5.640625 L 5.140625 -5.640625 C 5.328125 -5.640625 5.46875 -5.628906 5.5625 -5.609375 C 5.664062 -5.597656 5.773438 -5.5625 5.890625 -5.5 C 6.117188 -5.382812 6.234375 -5.0625 6.234375 -4.53125 C 6.234375 -3.957031 6.078125 -3.617188 5.765625 -3.515625 C 5.617188 -3.460938 5.40625 -3.4375 5.125 -3.4375 L 2.6875 -3.4375 Z M 2.6875 -2.1875 "/></g></g></g><g fill="#ab2222" fill-opacity="1"><g transform="translate(184.177449, 253.842863)"><g><path d="M 0.546875 -0.578125 C 0.390625 -0.679688 0.3125 -0.835938 0.3125 -1.046875 C 0.3125 -1.265625 0.46875 -1.59375 0.78125 -2.03125 C 0.875 -2.175781 1.019531 -2.25 1.21875 -2.25 C 1.425781 -2.25 1.703125 -2.144531 2.046875 -1.9375 C 2.390625 -1.738281 2.703125 -1.640625 2.984375 -1.640625 C 3.484375 -1.640625 3.734375 -1.738281 3.734375 -1.9375 C 3.734375 -2.09375 3.457031 -2.207031 2.90625 -2.28125 C 2.382812 -2.351562 1.867188 -2.546875 1.359375 -2.859375 C 1.117188 -3.003906 0.921875 -3.238281 0.765625 -3.5625 C 0.609375 -3.882812 0.53125 -4.265625 0.53125 -4.703125 C 0.53125 -6.003906 1.425781 -6.65625 3.21875 -6.65625 C 3.800781 -6.65625 4.40625 -6.515625 5.03125 -6.234375 C 5.320312 -6.097656 5.46875 -5.929688 5.46875 -5.734375 C 5.46875 -5.535156 5.375 -5.289062 5.1875 -5 C 5.007812 -4.71875 4.828125 -4.578125 4.640625 -4.578125 C 4.535156 -4.578125 4.347656 -4.632812 4.078125 -4.75 C 3.816406 -4.875 3.523438 -4.9375 3.203125 -4.9375 C 2.722656 -4.9375 2.484375 -4.847656 2.484375 -4.671875 C 2.484375 -4.421875 2.765625 -4.257812 3.328125 -4.1875 C 3.867188 -4.125 4.394531 -3.96875 4.90625 -3.71875 C 5.144531 -3.601562 5.34375 -3.398438 5.5 -3.109375 C 5.664062 -2.828125 5.75 -2.472656 5.75 -2.046875 C 5.75 -1.617188 5.664062 -1.253906 5.5 -0.953125 C 5.34375 -0.648438 5.117188 -0.421875 4.828125 -0.265625 C 4.304688 -0.015625 3.644531 0.109375 2.84375 0.109375 C 2.039062 0.109375 1.273438 -0.117188 0.546875 -0.578125 Z M 0.546875 -0.578125 "/></g></g></g><g fill="#ab2222" fill-opacity="1"><g transform="translate(190.234242, 253.842863)"><g><path d="M 4.28125 -4.34375 L 3.484375 -4.390625 L 3.484375 -2.671875 C 3.484375 -2.453125 3.515625 -2.289062 3.578125 -2.1875 C 3.648438 -2.09375 3.785156 -2.046875 3.984375 -2.046875 C 4.179688 -2.046875 4.328125 -2.035156 4.421875 -2.015625 C 4.523438 -2.003906 4.640625 -1.96875 4.765625 -1.90625 C 4.953125 -1.800781 5.046875 -1.523438 5.046875 -1.078125 C 5.046875 -0.554688 4.929688 -0.238281 4.703125 -0.125 C 4.578125 -0.0625 4.460938 -0.0234375 4.359375 -0.015625 C 4.265625 -0.00390625 4.128906 0 3.953125 0 C 3.085938 0 2.429688 -0.191406 1.984375 -0.578125 C 1.546875 -0.972656 1.328125 -1.628906 1.328125 -2.546875 L 1.328125 -4.390625 C 1.171875 -4.359375 1 -4.34375 0.8125 -4.34375 C 0.632812 -4.34375 0.484375 -4.410156 0.359375 -4.546875 C 0.242188 -4.691406 0.1875 -4.929688 0.1875 -5.265625 C 0.1875 -5.609375 0.207031 -5.859375 0.25 -6.015625 C 0.289062 -6.171875 0.347656 -6.28125 0.421875 -6.34375 C 0.554688 -6.445312 0.722656 -6.5 0.921875 -6.5 L 1.328125 -6.453125 L 1.328125 -7.734375 C 1.328125 -7.921875 1.332031 -8.0625 1.34375 -8.15625 C 1.351562 -8.25 1.394531 -8.347656 1.46875 -8.453125 C 1.570312 -8.660156 1.890625 -8.765625 2.421875 -8.765625 C 2.984375 -8.765625 3.316406 -8.609375 3.421875 -8.296875 C 3.460938 -8.171875 3.484375 -7.960938 3.484375 -7.671875 L 3.484375 -6.453125 C 3.847656 -6.484375 4.117188 -6.5 4.296875 -6.5 C 4.484375 -6.5 4.625 -6.492188 4.71875 -6.484375 C 4.820312 -6.472656 4.9375 -6.4375 5.0625 -6.375 C 5.269531 -6.257812 5.375 -5.941406 5.375 -5.421875 C 5.375 -4.898438 5.265625 -4.578125 5.046875 -4.453125 C 4.921875 -4.398438 4.8125 -4.367188 4.71875 -4.359375 C 4.625 -4.347656 4.476562 -4.34375 4.28125 -4.34375 Z M 4.28125 -4.34375 "/></g></g></g><g fill="#ab2222" fill-opacity="1"><g transform="translate(195.795593, 253.842863)"><g><path d="M 2.421875 -2.046875 C 2.554688 -1.898438 2.625 -1.609375 2.625 -1.171875 L 2.625 -1.125 C 2.625 -0.925781 2.617188 -0.78125 2.609375 -0.6875 C 2.597656 -0.59375 2.554688 -0.476562 2.484375 -0.34375 C 2.359375 -0.101562 2.046875 0.015625 1.546875 0.015625 C 1.046875 0.015625 0.710938 -0.0625 0.546875 -0.21875 C 0.390625 -0.375 0.3125 -0.671875 0.3125 -1.109375 L 0.3125 -1.171875 C 0.3125 -1.359375 0.316406 -1.5 0.328125 -1.59375 C 0.335938 -1.695312 0.378906 -1.8125 0.453125 -1.9375 C 0.566406 -2.175781 0.875 -2.296875 1.375 -2.296875 C 1.875 -2.296875 2.222656 -2.210938 2.421875 -2.046875 Z M 2.421875 -2.046875 "/></g></g></g><g fill="#ab2222" fill-opacity="1"><g transform="translate(172.41659, 270.873677)"><g><path d="M 6.265625 -2.1875 C 6.609375 -2.1875 6.851562 -2.144531 7 -2.0625 C 7.144531 -1.988281 7.238281 -1.867188 7.28125 -1.703125 C 7.332031 -1.546875 7.359375 -1.335938 7.359375 -1.078125 C 7.359375 -0.816406 7.332031 -0.601562 7.28125 -0.4375 C 7.226562 -0.28125 7.140625 -0.175781 7.015625 -0.125 C 6.828125 -0.0195312 6.570312 0.03125 6.25 0.03125 L 1.40625 0.03125 C 1.101562 0.03125 0.84375 -0.078125 0.625 -0.296875 C 0.414062 -0.523438 0.3125 -0.789062 0.3125 -1.09375 C 0.3125 -1.539062 0.460938 -1.953125 0.765625 -2.328125 C 1.078125 -2.703125 1.453125 -3.019531 1.890625 -3.28125 C 2.328125 -3.550781 2.765625 -3.816406 3.203125 -4.078125 C 3.640625 -4.335938 4.015625 -4.632812 4.328125 -4.96875 C 4.640625 -5.300781 4.796875 -5.648438 4.796875 -6.015625 C 4.796875 -6.097656 4.765625 -6.207031 4.703125 -6.34375 C 4.648438 -6.476562 4.585938 -6.585938 4.515625 -6.671875 C 4.441406 -6.753906 4.332031 -6.832031 4.1875 -6.90625 C 4.039062 -6.988281 3.832031 -7.03125 3.5625 -7.03125 C 3.300781 -7.03125 3.070312 -6.929688 2.875 -6.734375 C 2.6875 -6.535156 2.578125 -6.34375 2.546875 -6.15625 L 2.5 -5.875 L 2.5 -5.796875 C 2.5 -5.617188 2.492188 -5.484375 2.484375 -5.390625 C 2.472656 -5.296875 2.429688 -5.191406 2.359375 -5.078125 C 2.242188 -4.878906 1.925781 -4.78125 1.40625 -4.78125 C 0.820312 -4.78125 0.476562 -4.9375 0.375 -5.25 C 0.332031 -5.382812 0.3125 -5.597656 0.3125 -5.890625 C 0.3125 -6.742188 0.617188 -7.507812 1.234375 -8.1875 C 1.847656 -8.875 2.648438 -9.21875 3.640625 -9.21875 C 4.640625 -9.21875 5.445312 -8.875 6.0625 -8.1875 C 6.6875 -7.5 7 -6.710938 7 -5.828125 C 7 -5.359375 6.894531 -4.910156 6.6875 -4.484375 C 6.476562 -4.066406 6.234375 -3.726562 5.953125 -3.46875 C 5.335938 -2.925781 4.789062 -2.554688 4.3125 -2.359375 L 4 -2.25 L 4 -2.1875 Z M 6.265625 -2.1875 "/></g></g></g><g fill="#ab2222" fill-opacity="1"><g transform="translate(179.959707, 270.873677)"><g><path d="M 1.25 -8.03125 C 1.488281 -8.363281 1.820312 -8.644531 2.25 -8.875 C 2.6875 -9.101562 3.191406 -9.21875 3.765625 -9.21875 C 4.335938 -9.21875 4.832031 -9.101562 5.25 -8.875 C 5.675781 -8.65625 6.007812 -8.378906 6.25 -8.046875 C 6.5 -7.722656 6.703125 -7.335938 6.859375 -6.890625 C 7.097656 -6.148438 7.21875 -5.359375 7.21875 -4.515625 C 7.21875 -3.023438 6.894531 -1.84375 6.25 -0.96875 C 6.007812 -0.632812 5.675781 -0.359375 5.25 -0.140625 C 4.832031 0.0664062 4.34375 0.171875 3.78125 0.171875 C 3.21875 0.171875 2.71875 0.0625 2.28125 -0.15625 C 1.851562 -0.375 1.515625 -0.644531 1.265625 -0.96875 C 1.023438 -1.289062 0.828125 -1.675781 0.671875 -2.125 C 0.429688 -2.832031 0.3125 -3.632812 0.3125 -4.53125 C 0.3125 -5.363281 0.40625 -6.070312 0.59375 -6.65625 C 0.789062 -7.238281 1.007812 -7.695312 1.25 -8.03125 Z M 3.75 -2.03125 C 4.601562 -2.03125 5.03125 -2.835938 5.03125 -4.453125 L 5.03125 -4.53125 C 5.03125 -6.195312 4.609375 -7.03125 3.765625 -7.03125 C 2.921875 -7.03125 2.5 -6.195312 2.5 -4.53125 C 2.5 -2.863281 2.914062 -2.03125 3.75 -2.03125 Z M 3.75 -2.03125 "/></g></g></g><g fill="#ab2222" fill-opacity="1"><g transform="translate(187.490444, 270.873677)"><g><path d="M 6.265625 -2.1875 C 6.609375 -2.1875 6.851562 -2.144531 7 -2.0625 C 7.144531 -1.988281 7.238281 -1.867188 7.28125 -1.703125 C 7.332031 -1.546875 7.359375 -1.335938 7.359375 -1.078125 C 7.359375 -0.816406 7.332031 -0.601562 7.28125 -0.4375 C 7.226562 -0.28125 7.140625 -0.175781 7.015625 -0.125 C 6.828125 -0.0195312 6.570312 0.03125 6.25 0.03125 L 1.40625 0.03125 C 1.101562 0.03125 0.84375 -0.078125 0.625 -0.296875 C 0.414062 -0.523438 0.3125 -0.789062 0.3125 -1.09375 C 0.3125 -1.539062 0.460938 -1.953125 0.765625 -2.328125 C 1.078125 -2.703125 1.453125 -3.019531 1.890625 -3.28125 C 2.328125 -3.550781 2.765625 -3.816406 3.203125 -4.078125 C 3.640625 -4.335938 4.015625 -4.632812 4.328125 -4.96875 C 4.640625 -5.300781 4.796875 -5.648438 4.796875 -6.015625 C 4.796875 -6.097656 4.765625 -6.207031 4.703125 -6.34375 C 4.648438 -6.476562 4.585938 -6.585938 4.515625 -6.671875 C 4.441406 -6.753906 4.332031 -6.832031 4.1875 -6.90625 C 4.039062 -6.988281 3.832031 -7.03125 3.5625 -7.03125 C 3.300781 -7.03125 3.070312 -6.929688 2.875 -6.734375 C 2.6875 -6.535156 2.578125 -6.34375 2.546875 -6.15625 L 2.5 -5.875 L 2.5 -5.796875 C 2.5 -5.617188 2.492188 -5.484375 2.484375 -5.390625 C 2.472656 -5.296875 2.429688 -5.191406 2.359375 -5.078125 C 2.242188 -4.878906 1.925781 -4.78125 1.40625 -4.78125 C 0.820312 -4.78125 0.476562 -4.9375 0.375 -5.25 C 0.332031 -5.382812 0.3125 -5.597656 0.3125 -5.890625 C 0.3125 -6.742188 0.617188 -7.507812 1.234375 -8.1875 C 1.847656 -8.875 2.648438 -9.21875 3.640625 -9.21875 C 4.640625 -9.21875 5.445312 -8.875 6.0625 -8.1875 C 6.6875 -7.5 7 -6.710938 7 -5.828125 C 7 -5.359375 6.894531 -4.910156 6.6875 -4.484375 C 6.476562 -4.066406 6.234375 -3.726562 5.953125 -3.46875 C 5.335938 -2.925781 4.789062 -2.554688 4.3125 -2.359375 L 4 -2.25 L 4 -2.1875 Z M 6.265625 -2.1875 "/></g></g></g><g fill="#ab2222" fill-opacity="1"><g transform="translate(195.033561, 270.873677)"><g><path d="M 6.265625 -2.1875 C 6.609375 -2.1875 6.851562 -2.144531 7 -2.0625 C 7.144531 -1.988281 7.238281 -1.867188 7.28125 -1.703125 C 7.332031 -1.546875 7.359375 -1.335938 7.359375 -1.078125 C 7.359375 -0.816406 7.332031 -0.601562 7.28125 -0.4375 C 7.226562 -0.28125 7.140625 -0.175781 7.015625 -0.125 C 6.828125 -0.0195312 6.570312 0.03125 6.25 0.03125 L 1.40625 0.03125 C 1.101562 0.03125 0.84375 -0.078125 0.625 -0.296875 C 0.414062 -0.523438 0.3125 -0.789062 0.3125 -1.09375 C 0.3125 -1.539062 0.460938 -1.953125 0.765625 -2.328125 C 1.078125 -2.703125 1.453125 -3.019531 1.890625 -3.28125 C 2.328125 -3.550781 2.765625 -3.816406 3.203125 -4.078125 C 3.640625 -4.335938 4.015625 -4.632812 4.328125 -4.96875 C 4.640625 -5.300781 4.796875 -5.648438 4.796875 -6.015625 C 4.796875 -6.097656 4.765625 -6.207031 4.703125 -6.34375 C 4.648438 -6.476562 4.585938 -6.585938 4.515625 -6.671875 C 4.441406 -6.753906 4.332031 -6.832031 4.1875 -6.90625 C 4.039062 -6.988281 3.832031 -7.03125 3.5625 -7.03125 C 3.300781 -7.03125 3.070312 -6.929688 2.875 -6.734375 C 2.6875 -6.535156 2.578125 -6.34375 2.546875 -6.15625 L 2.5 -5.875 L 2.5 -5.796875 C 2.5 -5.617188 2.492188 -5.484375 2.484375 -5.390625 C 2.472656 -5.296875 2.429688 -5.191406 2.359375 -5.078125 C 2.242188 -4.878906 1.925781 -4.78125 1.40625 -4.78125 C 0.820312 -4.78125 0.476562 -4.9375 0.375 -5.25 C 0.332031 -5.382812 0.3125 -5.597656 0.3125 -5.890625 C 0.3125 -6.742188 0.617188 -7.507812 1.234375 -8.1875 C 1.847656 -8.875 2.648438 -9.21875 3.640625 -9.21875 C 4.640625 -9.21875 5.445312 -8.875 6.0625 -8.1875 C 6.6875 -7.5 7 -6.710938 7 -5.828125 C 7 -5.359375 6.894531 -4.910156 6.6875 -4.484375 C 6.476562 -4.066406 6.234375 -3.726562 5.953125 -3.46875 C 5.335938 -2.925781 4.789062 -2.554688 4.3125 -2.359375 L 4 -2.25 L 4 -2.1875 Z M 6.265625 -2.1875 "/></g></g></g></svg>