<?xml version="1.0" standalone="no"?><svg xmlns="http://www.w3.org/2000/svg" viewBox="0 0 1440 320"><path fill="#009bfb" fill-opacity="1" d="M0,288L20,272C40,256,80,224,120,224C160,224,200,256,240,266.7C280,277,320,267,360,234.7C400,203,440,149,480,138.7C520,128,560,160,600,181.3C640,203,680,213,720,224C760,235,800,245,840,240C880,235,920,213,960,192C1000,171,1040,149,1080,149.3C1120,149,1160,171,1200,154.7C1240,139,1280,85,1320,106.7C1360,128,1400,224,1420,272L1440,320L1440,320L1420,320C1400,320,1360,320,1320,320C1280,320,1240,320,1200,320C1160,320,1120,320,1080,320C1040,320,1000,320,960,320C920,320,880,320,840,320C800,320,760,320,720,320C680,320,640,320,600,320C560,320,520,320,480,320C440,320,400,320,360,320C320,320,280,320,240,320C200,320,160,320,120,320C80,320,40,320,20,320L0,320Z"></path></svg>